{
  "accessors": [
    {
      "bufferView": 2,
      "componentType": 5126,
      "count": 39359,
      "max": [
        1.4219563007354736,
        4.0226840972900391,
        2.0180528163909912
      ],
      "min": [
        -1.421955943107605,
        0.00069657957646995783,
        -1.7963619232177734
      ],
      "type": "VEC3"
    },
    {
      "bufferView": 2,
      "byteOffset": 472308,
      "componentType": 5126,
      "count": 39359,
      "max": [
        1,
        1,
        0.99999821186065674
      ],
      "min": [
        -0.99998247623443604,
        -1,
        -0.99999916553497314
      ],
      "type": "VEC3"
    },
    {
      "bufferView": 3,
      "componentType": 5126,
      "count": 39359,
      "max": [
        1,
        0.71720421314239502,
        0.99993371963500977,
        1
      ],
      "min": [
        -0.99579882621765137,
        -0.7172166109085083,
        -0.99900549650192261,
        -1
      ],
      "type": "VEC4"
    },
    {
      "bufferView": 1,
      "componentType": 5126,
      "count": 39359,
      "max": [
        1.6419589519500732,
        1.1737426519393921
      ],
      "min": [
        -0.63207042217254639,
        -0.51378124952316284
      ],
      "type": "VEC2"
    },
    {
      "bufferView": 0,
      "componentType": 5125,
      "count": 231648,
      "max": [
        39358
      ],
      "min": [
        0
      ],
      "type": "SCALAR"
    }
  ],
  "asset": {
    "extras": {
      "author": "thomasrigsby (https://sketchfab.com/thomasrigsby)",
      "license": "CC-BY-4.0 (http://creativecommons.org/licenses/by/4.0/)",
      "source": "https://sketchfab.com/3d-models/teapot-1d3405416b0f4c3f80c28dfeb85af958",
      "title": "Teapot"
    },
    "generator": "Sketchfab-7.27.0",
    "version": "2.0"
  },
  "bufferViews": [
    {
      "buffer": 0,
      "byteLength": 926592,
      "byteOffset": 0,
      "name": "floatBufferViews",
      "target": 34963
    },
    {
      "buffer": 0,
      "byteLength": 314872,
      "byteOffset": 926592,
      "byteStride": 8,
      "name": "floatBufferViews",
      "target": 34962
    },
    {
      "buffer": 0,
      "byteLength": 944616,
      "byteOffset": 1241464,
      "byteStride": 12,
      "name": "floatBufferViews",
      "target": 34962
    },
    {
      "buffer": 0,
      "byteLength": 629744,
      "byteOffset": 2186080,
      "byteStride": 16,
      "name": "floatBufferViews",
      "target": 34962
    }
  ],
  "buffers": [
    {
      "byteLength": 2815824,
      "uri": "scene.bin"
    }
  ],
  "materials": [
    {
      "doubleSided": true,
      "emissiveFactor": [
        0,
        0,
        0
      ],
      "name": "TeaPotMaterial",
      "pbrMetallicRoughness": {
        "baseColorFactor": [
          1,
          1,
          1,
          1
        ],
        "metallicFactor": 0,
        "roughnessFactor": 0.217391
      }
    }
  ],
  "meshes": [
    {
      "primitives": [
        {
          "attributes": {
            "NORMAL": 1,
            "POSITION": 0,
            "TANGENT": 2,
            "TEXCOORD_0": 3
          },
          "indices": 4,
          "material": 0,
          "mode": 4
        }
      ]
    }
  ],
  "nodes": [
    {
      "children": [
        1
      ],
      "name": "RootNode (gltf orientation matrix)",
      "rotation": [
        -0.70710678118654746,
        -0,
        -0,
        0.70710678118654757
      ]
    },
    {
      "children": [
        2
      ],
      "name": "RootNode (model correction matrix)"
    },
    {
      "children": [
        3
      ],
      "name": "root"
    },
    {
      "children": [
        4
      ],
      "matrix": [
        1,
        0,
        0,
        0,
        0,
        2.2204460492503131e-16,
        1,
        0,
        0,
        -1,
        2.2204460492503131e-16,
        0,
        0,
        0,
        0,
        1
      ],
      "name": "GLTF_SceneRootNode"
    },
    {
      "children": [
        5
      ],
      "matrix": [
        0.99850357781492993,
        0,
        0.054686425105177218,
        0,
        -0,
        1,
        0,
        0,
        -0.054686425105177218,
        -0,
        0.99850357781492993,
        0,
        0,
        0,
        0,
        1
      ],
      "name": "Teapot_0"
    },
    {
      "mesh": 0,
      "name": ""
    }
  ],
  "scene": 0,
  "scenes": [
    {
      "name": "OSG_Scene",
      "nodes": [
        0
      ]
    }
  ]
}

